<svg xmlns="http://www.w3.org/2000/svg" fill="none" viewBox="0 0 70 27" height="27" width="70">
<g clip-path="url(#clip0_1_332)">
<path fill="white" d="M7.15039 10.8754C7.15039 8.40831 8.68442 7.16357 11.5163 7.16357H19.7932V12.4368H19.1163C18.8311 9.37439 17.467 8.11543 14.6954 8.11543H12.9869C11.6567 8.11543 11.0103 8.7801 11.0103 10.0924V16.9075C11.0103 18.2198 11.6564 18.8845 12.9869 18.8845H14.6964C17.4273 18.8845 18.8166 17.5509 19.1159 14.3914H19.7928V19.8363H11.5167C8.68477 19.8363 7.15075 18.5916 7.15075 16.1245V10.8754H7.15039"></path>
<path fill="white" d="M34.5431 7.16393V19.8363H31.1771L22.9059 9.74753V14.2899C22.9059 17.6313 24.2432 18.8703 27.2609 19.1998V19.8363H21.9003V7.16393H25.7719L33.5374 16.6385V12.6649C33.5374 9.3459 32.1945 8.09444 29.2513 7.80014V7.16357H34.5431V7.16393"></path>
<path fill="white" d="M36.6504 7.16357H49.2932V12.4368H48.6163C48.3298 9.36302 46.967 8.10157 44.1955 8.10157H40.3928V12.8538H41.6811C43.8317 12.8538 44.7462 11.8863 44.9639 9.81087H45.6522V16.7767H44.9639C44.7476 14.6914 43.8359 13.731 41.6811 13.731H40.3928V18.8987H44.1969C46.9277 18.8987 48.317 17.5612 48.6163 14.3914H49.2932V19.8363H36.6504V7.16357"></path>
<path fill="white" d="M63.441 7.16357V12.437H62.7641C62.4719 9.53618 61.2623 8.18868 58.9908 7.94378V16.8555C58.9908 18.4046 59.5358 19.0241 61.5304 19.1535V19.8363H52.7088V19.1535C54.7037 19.0238 55.2487 18.4046 55.2487 16.8555V7.94342C52.9772 8.18833 51.7677 9.53583 51.4755 12.4366H50.7982V7.16357H63.441"></path>
</g>
<defs>
<clipPath id="clip0_1_332">
<rect transform="translate(5.29568 7.39832)" fill="white" height="12.2034" width="60"></rect>
</clipPath>
</defs>
</svg>
