<svg xmlns="http://www.w3.org/2000/svg" fill="none" viewBox="0 0 70 28" height="28" width="70">
<path fill="white" d="M11.0487 18.9104H7.93791V13.9747C7.93791 13.4567 7.56599 13.1246 7.13033 13.1246C6.70528 13.1246 6.19257 13.47 6.19257 13.9747V18.9104H3.40055V11.0473L2.5 10.4097C3.53072 10.0644 5.25481 9.3206 6.19257 8.79993V12.9227C6.56714 12.4579 7.47833 11.8602 8.63393 11.8602C10.1003 11.8602 10.7299 12.8298 10.7299 13.988V18.1533C10.7299 18.2809 10.8361 18.5305 11.0487 18.9104V18.9104ZM43.1103 18.9104H39.9995V13.9747C39.9995 13.4567 39.6276 13.1247 39.192 13.1247C38.7669 13.1247 38.2542 13.47 38.2542 13.9747V18.9104H35.4622V11.0473L34.5616 10.4098C35.5924 10.0645 37.3164 9.32065 38.2542 8.79998V12.9228C38.6261 12.4579 39.5373 11.8602 40.6956 11.8602C42.162 11.8602 42.7916 12.8298 42.7916 13.988V18.1533C42.7916 18.2809 42.8978 18.5305 43.1103 18.9104V18.9104ZM17.8495 17.7365V18.228C17.2305 18.7619 16.5451 19.2003 15.076 19.2003C12.7542 19.2003 11.3356 17.6436 11.3356 15.7256C11.3356 13.4384 12.7941 11.8791 14.9326 11.8791C17.0498 11.8791 17.8495 13.3295 17.8495 15.1545H13.9816C14.1489 17.2557 15.3204 18.2147 16.391 18.2147C16.9064 18.2147 17.4882 18.042 17.8495 17.7365ZM14.8024 14.7396C15.424 14.7396 15.4957 14.5616 15.4957 14.0409C15.4957 13.6425 15.424 12.6596 14.8024 12.6596C14.1807 12.6596 14.109 13.6425 14.109 14.0409C14.109 14.5616 14.1807 14.7396 14.8024 14.7396ZM67.5 17.7339V18.2253C66.881 18.7593 66.1956 19.1976 64.7266 19.1976C62.4048 19.1976 60.9862 17.6409 60.9862 15.7256C60.9862 13.4358 62.4446 11.8791 64.5858 11.8791C66.7004 11.8791 67.5 13.3295 67.5 15.1518H63.6321C63.7994 17.2557 64.971 18.2121 66.0416 18.2121C66.5569 18.2121 67.1387 18.0393 67.5 17.7339V17.7339ZM64.453 14.7371C65.0747 14.7371 65.1464 14.5619 65.1464 14.0411C65.1464 13.6426 65.0747 12.6571 64.453 12.6571C63.8314 12.6571 63.7597 13.6426 63.7597 14.0411C63.7597 14.5618 63.8314 14.7371 64.453 14.7371ZM25.7366 17.6751L26.0475 17.7414C25.9067 18.3125 25.4949 19.1998 24.1693 19.1998C23.0642 19.1998 22.7534 18.5197 22.5222 17.8025C22.3283 18.4666 21.5712 19.1998 20.1314 19.1998C18.8456 19.1998 18.139 18.6286 18.139 17.5501C18.139 16.352 19.3078 15.4728 22.2274 14.6068V13.3449C22.2274 12.6915 21.8794 12.4657 21.4942 12.4657C21.1461 12.4657 20.5936 12.8376 20.5936 13.4246C20.5936 13.7036 20.6466 13.9161 20.684 14.195C20.684 14.5536 20.2722 15.1009 19.6426 15.1009C18.9493 15.1009 18.6146 14.5961 18.6146 14.009C18.6146 13.0501 19.5018 11.8786 21.829 11.8786C24.2464 11.8786 25.0168 13.1563 25.0168 14.381V17.6298C25.0168 17.829 25.0964 18.0283 25.3143 18.0283C25.5056 18.0283 25.6384 17.9194 25.7367 17.675L25.7366 17.6751ZM22.2407 17.4311V15.019C21.2631 15.4148 20.9257 16.3977 20.9257 17.1521C20.9257 17.7604 21.1142 18.0394 21.5659 18.0394C21.9591 18.0394 22.2407 17.787 22.2407 17.4311ZM29.7348 18.9104H26.5257V11.0473L25.6703 10.4098C26.6479 10.0645 28.4438 9.32065 29.3364 8.79998V18.1533C29.3364 18.2729 29.4692 18.5252 29.7348 18.9104ZM47.3317 18.9104H44.1199V11.0473L43.2645 10.4098C44.2421 10.0645 46.0406 9.32065 46.9332 8.79998V18.1533C46.9332 18.2729 47.066 18.5252 47.3317 18.9104ZM34.551 18.0949V18.5863C34.0835 18.9875 33.3078 19.2 32.471 19.2C31.0896 19.2 30.6114 18.1746 30.6114 17.3086V12.6837H29.9446L33.4432 9.61287V12.1445H34.551V12.6837H33.4432V17.6964C33.4432 18.0949 33.677 18.2809 33.9586 18.2809C34.1313 18.2809 34.4394 18.2013 34.551 18.0948V18.0949ZM50.0014 11.7699C49.2071 11.7699 48.5722 11.1111 48.5722 10.2849C48.5722 9.45877 49.2071 8.79998 50.0014 8.79998C50.7957 8.79998 51.4279 9.45877 51.4279 10.2849C51.4279 11.1111 50.7957 11.7699 50.0014 11.7699ZM51.8797 18.9104H48.6015V13.9588L47.7009 13.3186C48.7317 12.9733 50.4611 12.2268 51.4015 11.7061V18.1533C51.4015 18.2783 51.5609 18.5306 51.8797 18.9104V18.9104ZM60.7764 18.9104H57.5647V13.9588C57.5647 13.4408 57.1954 13.1061 56.7571 13.1061C56.3321 13.1061 55.8193 13.4541 55.8193 13.9588V18.9104H53.0273V13.9588L52.1294 13.3186C53.1575 12.9733 54.8072 12.2268 55.7476 11.7061V13.0663C56.2098 12.4526 57.1051 11.839 58.2607 11.839C59.7271 11.839 60.3567 12.8139 60.3567 13.9721V18.1533C60.3567 18.2756 60.4974 18.5279 60.7764 18.9104V18.9104Z" clip-rule="evenodd" fill-rule="evenodd"></path>
</svg>
