<svg width="70" height="27" viewBox="0 0 70 27" fill="none" xmlns="http://www.w3.org/2000/svg">
<path fill-rule="evenodd" clip-rule="evenodd" d="M6.411 11.5343C6.90072 11.4559 7.36157 11.7874 7.44033 12.2748C7.9446 15.3953 10.6647 17.7792 13.9427 17.7792C17.2206 17.7792 19.9407 15.3953 20.445 12.2748C20.5238 11.7874 20.9846 11.4559 21.4743 11.5343C21.9641 11.6127 22.2973 12.0713 22.2185 12.5586C21.5764 16.5319 18.1165 19.5667 13.9427 19.5667C9.76878 19.5667 6.30893 16.5319 5.66686 12.5586C5.58811 12.0713 5.92127 11.6127 6.411 11.5343Z" fill="white"/>
<path fill-rule="evenodd" clip-rule="evenodd" d="M18.7323 11.1651C17.9716 11.9375 16.9115 12.4166 15.739 12.4166C13.4242 12.4166 11.5477 10.5493 11.5477 8.24579C11.5477 7.8084 11.6154 7.38676 11.7408 6.9906C10.2033 7.78403 9.15271 9.3824 9.15271 11.2249C9.15271 13.8575 11.2973 15.9916 13.9427 15.9916C16.5881 15.9916 18.7327 13.8575 18.7327 11.2249C18.7327 11.205 18.7326 11.185 18.7323 11.1651Z" fill="white"/>
<path d="M30.7465 12.7864C30.4772 12.7864 30.2318 12.7536 30.0102 12.6881C29.7945 12.6226 29.6031 12.5391 29.4354 12.4378C29.2737 12.3366 29.1359 12.2323 29.0222 12.125C28.9085 12.0178 28.8246 11.9195 28.7708 11.8301C28.6928 11.7228 28.642 11.6275 28.6181 11.5441C28.594 11.4607 28.6 11.3802 28.636 11.3028C28.678 11.2194 28.7527 11.133 28.8605 11.0436C28.9684 10.9482 29.067 10.9006 29.157 10.9006C29.2528 10.8946 29.3426 10.9215 29.4263 10.981C29.5161 11.0406 29.6031 11.124 29.6868 11.2313C29.8305 11.422 29.9921 11.559 30.1719 11.6424C30.3515 11.7199 30.531 11.7586 30.7106 11.7586C30.9442 11.7586 31.1478 11.7288 31.3214 11.6692C31.4951 11.6037 31.6297 11.5083 31.7255 11.3832C31.8273 11.2581 31.8782 11.0972 31.8782 10.9006C31.8782 10.7397 31.8273 10.6086 31.7255 10.5073C31.6297 10.4001 31.501 10.3107 31.3395 10.2392C31.1778 10.1618 30.995 10.0932 30.7915 10.0336C30.5939 9.96812 30.3933 9.89662 30.1898 9.81915C30.046 9.77148 29.9024 9.71488 29.7587 9.64933C29.6149 9.57783 29.4802 9.4974 29.3544 9.40803C29.2347 9.31865 29.1271 9.21438 29.0313 9.09522C28.9413 8.97008 28.8696 8.82708 28.8156 8.66622C28.7617 8.50533 28.7348 8.31765 28.7348 8.10315C28.7348 7.76353 28.8186 7.46562 28.9863 7.2094C29.154 6.94723 29.3874 6.74169 29.6868 6.59272C29.9861 6.4378 30.3276 6.36035 30.7106 6.36035C30.9562 6.36035 31.1748 6.38418 31.3664 6.43185C31.5638 6.47355 31.7315 6.53015 31.8693 6.60165C32.0129 6.6672 32.1296 6.73572 32.2196 6.80722C32.3154 6.87277 32.3841 6.92937 32.4261 6.97703C32.5639 7.11407 32.6386 7.23025 32.6506 7.32558C32.6685 7.41497 32.6147 7.53712 32.4889 7.69203C32.3632 7.8529 32.2405 7.94228 32.1208 7.96015C32.0069 7.97207 31.8782 7.9244 31.7345 7.81715C31.6387 7.71587 31.5429 7.63544 31.4471 7.57585C31.3513 7.5103 31.2437 7.46263 31.1238 7.43283C31.0101 7.40305 30.8693 7.38815 30.7018 7.38815C30.582 7.38815 30.4652 7.40603 30.3515 7.44178C30.2436 7.47157 30.1508 7.51923 30.0731 7.58478C29.9952 7.64437 29.9323 7.71883 29.8845 7.80822C29.8425 7.89758 29.8216 7.99888 29.8216 8.1121C29.8216 8.26702 29.8634 8.39512 29.9473 8.4964C30.0371 8.59173 30.1568 8.67217 30.3065 8.73772C30.4561 8.7973 30.6238 8.8539 30.8094 8.90753C30.995 8.96115 31.1836 9.01775 31.3752 9.07733C31.5729 9.14288 31.7675 9.22035 31.9591 9.30972C32.1507 9.39908 32.3212 9.5123 32.4711 9.64933C32.6207 9.78042 32.7404 9.94725 32.8302 10.1498C32.92 10.3465 32.965 10.5878 32.965 10.8738C32.965 11.2015 32.9021 11.4875 32.7764 11.7318C32.6506 11.9761 32.4799 12.1757 32.2644 12.3306C32.0489 12.4855 31.8095 12.5987 31.5459 12.6702C31.2824 12.7477 31.0161 12.7864 30.7465 12.7864Z" fill="white"/>
<path d="M34.3463 12.7057C34.1726 12.7057 34.0469 12.6789 33.9691 12.6253C33.8912 12.5776 33.8404 12.512 33.8165 12.4286C33.7984 12.3452 33.7896 12.2558 33.7896 12.1605V7.00358C33.7896 6.90227 33.7984 6.80993 33.8165 6.72651C33.8404 6.64309 33.8882 6.57754 33.9601 6.52987C34.038 6.48221 34.1638 6.45837 34.3373 6.45837C34.505 6.45837 34.6247 6.48221 34.6966 6.52987C34.7744 6.57754 34.8224 6.64309 34.8403 6.72651C34.8642 6.80993 34.8762 6.90227 34.8762 7.00358V11.7404H37.6154C37.7052 11.7404 37.7862 11.7494 37.8581 11.7673C37.9298 11.7792 37.9868 11.8209 38.0286 11.8924C38.0706 11.9579 38.0915 12.0652 38.0915 12.2141C38.0915 12.3631 38.0706 12.4733 38.0286 12.5448C37.9868 12.6104 37.9298 12.6521 37.8581 12.6699C37.7862 12.6938 37.7052 12.7057 37.6154 12.7057H34.3463Z" fill="white"/>
<path d="M39.4075 12.7057C39.2398 12.7057 39.1171 12.6789 39.0392 12.6253C38.9614 12.5776 38.9134 12.512 38.8955 12.4286C38.8777 12.3452 38.8686 12.2529 38.8686 12.1516V6.99462C38.8686 6.79204 38.9076 6.65202 38.9853 6.57458C39.0691 6.49711 39.2189 6.45837 39.4344 6.45837H42.9371C43.0389 6.45837 43.1287 6.47029 43.2064 6.49412C43.2904 6.51201 43.3563 6.55968 43.4041 6.63712C43.4521 6.70862 43.476 6.83077 43.476 7.00358C43.476 7.17041 43.4491 7.29254 43.3951 7.37001C43.3472 7.44746 43.2814 7.49512 43.1976 7.51301C43.1197 7.53087 43.0299 7.53983 42.9281 7.53983H39.9552V9.04133H42.0031C42.1048 9.04133 42.1917 9.05324 42.2634 9.07708C42.3353 9.09494 42.3922 9.13666 42.4342 9.20219C42.4761 9.26774 42.497 9.37796 42.497 9.53287C42.497 9.68184 42.4761 9.79208 42.4342 9.86358C42.3922 9.92911 42.3323 9.97083 42.2546 9.98869C42.1767 10.0006 42.0869 10.0066 41.9851 10.0066H39.9552V11.6153H42.9371C43.0389 11.6153 43.1287 11.6272 43.2064 11.6511C43.2904 11.6689 43.3563 11.7166 43.4041 11.7941C43.4521 11.8715 43.476 11.9937 43.476 12.1605C43.476 12.3273 43.4491 12.4495 43.3951 12.5269C43.3472 12.6044 43.2814 12.6521 43.1976 12.6699C43.1197 12.6938 43.0299 12.7057 42.9281 12.7057H39.4075Z" fill="white"/>
<path d="M44.9507 12.7057C44.783 12.7057 44.6601 12.6789 44.5824 12.6253C44.5044 12.5776 44.4566 12.512 44.4386 12.4286C44.4207 12.3452 44.4118 12.2529 44.4118 12.1516V6.99462C44.4118 6.79204 44.4506 6.65202 44.5283 6.57458C44.6123 6.49711 44.7619 6.45837 44.9775 6.45837H48.4801C48.582 6.45837 48.6717 6.47029 48.7497 6.49412C48.8334 6.51201 48.8993 6.55968 48.9471 6.63712C48.9951 6.70862 49.019 6.83077 49.019 7.00358C49.019 7.17041 48.9923 7.29254 48.9385 7.37001C48.8905 7.44746 48.8246 7.49512 48.7408 7.51301C48.6629 7.53087 48.5731 7.53983 48.4713 7.53983H45.4985V9.04133H47.5462C47.6478 9.04133 47.7349 9.05324 47.8067 9.07708C47.8786 9.09494 47.9352 9.13666 47.9772 9.20219C48.0192 9.26774 48.0402 9.37796 48.0402 9.53287C48.0402 9.68184 48.0192 9.79208 47.9772 9.86358C47.9352 9.92911 47.8754 9.97083 47.7976 9.98869C47.7197 10.0006 47.6299 10.0066 47.5281 10.0066H45.4985V11.6153H48.4801C48.582 11.6153 48.6717 11.6272 48.7497 11.6511C48.8334 11.6689 48.8993 11.7166 48.9471 11.7941C48.9951 11.8715 49.019 11.9937 49.019 12.1605C49.019 12.3273 48.9923 12.4495 48.9385 12.5269C48.8905 12.6044 48.8246 12.6521 48.7408 12.6699C48.6629 12.6938 48.5731 12.7057 48.4713 12.7057H44.9507Z" fill="white"/>
<path d="M50.4397 12.6968C50.272 12.6968 50.1495 12.6729 50.0716 12.6253C49.9938 12.5776 49.9458 12.512 49.928 12.4286C49.9099 12.3393 49.9008 12.2469 49.9008 12.1516V6.99462C49.9008 6.89929 49.9099 6.81291 49.928 6.73544C49.9519 6.65202 50.0025 6.58649 50.0804 6.53883C50.1582 6.48519 50.2812 6.45837 50.4488 6.45837H52.3529C52.6164 6.45837 52.8739 6.50308 53.1253 6.59244C53.3768 6.68183 53.601 6.81587 53.7986 6.99462C54.0023 7.17337 54.1611 7.39384 54.2748 7.65601C54.3945 7.91817 54.4544 8.22502 54.4544 8.57658C54.4544 8.92216 54.3945 9.22602 54.2748 9.48819C54.1611 9.74441 54.0023 9.96187 53.7986 10.1406C53.5951 10.3194 53.3676 10.4534 53.1161 10.5428C52.8707 10.6322 52.6132 10.6769 52.3436 10.6769H50.9877V12.1605C50.9877 12.2558 50.9758 12.3452 50.9517 12.4286C50.9338 12.512 50.8858 12.5776 50.8081 12.6253C50.7362 12.6729 50.6133 12.6968 50.4397 12.6968ZM50.9877 9.58651H52.3529C52.5384 9.58651 52.7062 9.55076 52.8558 9.47926C53.0115 9.40179 53.1372 9.28859 53.233 9.13962C53.3288 8.98471 53.3768 8.79108 53.3768 8.55869C53.3768 8.35016 53.3316 8.17141 53.2418 8.02244C53.1579 7.86752 53.0382 7.74836 52.8825 7.66494C52.7329 7.58152 52.5533 7.53983 52.3436 7.53983H50.9877V9.58651Z" fill="white"/>
<path d="M29.3275 20.2431C29.1719 20.2431 29.0552 20.2164 28.9772 20.1628C28.8995 20.1151 28.8485 20.0496 28.8246 19.9661C28.8007 19.8828 28.7886 19.7932 28.7886 19.6979V14.5321C28.7886 14.4368 28.7977 14.3504 28.8155 14.2729C28.8396 14.1895 28.8905 14.1239 28.9684 14.0763C29.0461 14.0226 29.1688 13.9958 29.3366 13.9958L31.0249 14.0048C31.4622 14.0048 31.8633 14.0792 32.2284 14.2282C32.5998 14.3772 32.92 14.5887 33.1895 14.8628C33.4589 15.1369 33.6655 15.4646 33.8092 15.8459C33.959 16.2213 34.0337 16.6354 34.0337 17.0882C34.0337 17.553 33.959 17.979 33.8092 18.3663C33.6595 18.7536 33.45 19.0872 33.1805 19.3672C32.9111 19.6472 32.5908 19.8647 32.2196 20.0198C31.8543 20.1688 31.4471 20.2431 30.998 20.2431H29.3275ZM29.8754 19.1617H31.0249C31.4082 19.1617 31.7436 19.0783 32.031 18.9115C32.3182 18.7387 32.5398 18.5004 32.6956 18.1965C32.8571 17.8926 32.938 17.5381 32.938 17.1329C32.938 16.7218 32.8571 16.3643 32.6956 16.0604C32.5398 15.7506 32.3154 15.5122 32.022 15.3454C31.7345 15.1726 31.3993 15.0862 31.0161 15.0862H29.8754V19.1617Z" fill="white"/>
<path d="M37.7312 20.3235C37.3001 20.3235 36.896 20.2431 36.5188 20.0821C36.1475 19.9153 35.8183 19.689 35.5308 19.403C35.2434 19.111 35.0189 18.7773 34.8572 18.4019C34.6955 18.0206 34.6147 17.6125 34.6147 17.1775C34.6147 16.7306 34.6925 16.3135 34.8481 15.9262C35.0098 15.533 35.2284 15.1904 35.5039 14.8984C35.7853 14.6005 36.1087 14.3681 36.4738 14.2013C36.839 14.0345 37.2313 13.951 37.6504 13.951C38.0875 13.951 38.4916 14.0345 38.8628 14.2013C39.24 14.3622 39.5694 14.5886 39.8508 14.8806C40.1322 15.1725 40.3537 15.5121 40.5154 15.8994C40.6771 16.2808 40.7578 16.6949 40.7578 17.1417C40.7578 17.5767 40.6801 17.9878 40.5244 18.3751C40.3688 18.7565 40.1502 19.0961 39.8687 19.394C39.5873 19.686 39.2641 19.9153 38.8987 20.0821C38.5396 20.2431 38.1504 20.3235 37.7312 20.3235ZM37.6864 19.2331C37.9618 19.2331 38.2192 19.1795 38.4587 19.0722C38.6981 18.965 38.9078 18.816 39.0873 18.6254C39.2729 18.4347 39.4167 18.2142 39.5186 17.964C39.6202 17.7078 39.6712 17.4337 39.6712 17.1417C39.6712 16.8498 39.6172 16.5787 39.5095 16.3284C39.4077 16.0722 39.2641 15.8488 39.0783 15.6581C38.8987 15.4615 38.6892 15.3096 38.4496 15.2023C38.2162 15.0951 37.9618 15.0414 37.6864 15.0414C37.4168 15.0414 37.1624 15.0951 36.9229 15.2023C36.6833 15.3096 36.4708 15.4615 36.2852 15.6581C36.1057 15.8488 35.9649 16.0722 35.8631 16.3284C35.7614 16.5846 35.7104 16.8557 35.7104 17.1417C35.7104 17.4277 35.7614 17.6989 35.8631 17.955C35.9709 18.2113 36.1145 18.4347 36.2943 18.6254C36.4738 18.816 36.6803 18.965 36.9139 19.0722C37.1533 19.1795 37.4108 19.2331 37.6864 19.2331Z" fill="white"/>
<path d="M44.4721 20.2878C44.1787 20.2878 43.8822 20.246 43.5829 20.1627C43.2835 20.0733 42.996 19.9422 42.7207 19.7693C42.4453 19.5907 42.1997 19.3732 41.9841 19.117C41.7746 18.8548 41.6069 18.5539 41.4812 18.2143C41.3555 17.8687 41.2926 17.4874 41.2926 17.0703C41.2926 16.6591 41.3555 16.2897 41.4812 15.962C41.6069 15.6284 41.7746 15.3364 41.9841 15.0861C42.1997 14.8359 42.4423 14.6274 42.7116 14.4605C42.987 14.2937 43.2744 14.1686 43.5739 14.0851C43.8792 13.9958 44.1817 13.9481 44.4809 13.9421C44.7862 13.9421 45.0498 13.9749 45.2713 14.0405C45.4928 14.106 45.6724 14.1775 45.8102 14.255C45.9478 14.3265 46.0409 14.3771 46.0888 14.4069C46.1846 14.4665 46.2743 14.535 46.3583 14.6125C46.4481 14.684 46.4959 14.7733 46.5019 14.8806C46.5079 14.9521 46.4987 15.0176 46.4748 15.0772C46.4509 15.1308 46.4181 15.1874 46.3762 15.247C46.3043 15.3483 46.2326 15.4228 46.1607 15.4705C46.0888 15.5181 46.0169 15.542 45.9451 15.542C45.8793 15.542 45.8162 15.5241 45.7564 15.4883C45.7023 15.4526 45.6336 15.4079 45.5499 15.3543C45.5139 15.3304 45.448 15.2947 45.3522 15.247C45.2624 15.1934 45.1395 15.1457 44.9839 15.104C44.8342 15.0623 44.6518 15.0415 44.4361 15.0415C44.1786 15.0415 43.9272 15.0861 43.6816 15.1755C43.4361 15.2649 43.2146 15.399 43.0171 15.5777C42.8255 15.7505 42.6727 15.968 42.559 16.2301C42.4453 16.4864 42.3883 16.7813 42.3883 17.115C42.3883 17.4486 42.4453 17.7465 42.559 18.0087C42.6727 18.2649 42.8255 18.4824 43.0171 18.6611C43.2146 18.8339 43.4361 18.965 43.6816 19.0544C43.9272 19.1438 44.1786 19.1885 44.4361 19.1885C44.6398 19.1885 44.8133 19.1706 44.9571 19.1348C45.1068 19.0931 45.2325 19.0455 45.3343 18.9918C45.4422 18.9322 45.5228 18.8876 45.5766 18.8578C45.6425 18.8161 45.7055 18.7773 45.7654 18.7416C45.8252 18.7058 45.8879 18.688 45.9538 18.688C46.0257 18.688 46.0948 18.7118 46.1607 18.7595C46.2326 18.8071 46.3011 18.8846 46.367 18.9918C46.4089 19.0574 46.4421 19.1199 46.466 19.1795C46.4899 19.2391 46.4987 19.3017 46.4927 19.3672C46.4867 19.4745 46.4389 19.5668 46.3491 19.6443C46.2651 19.7158 46.1753 19.7783 46.0795 19.832C46.0317 19.8618 45.9391 19.9153 45.8013 19.9928C45.6696 20.0643 45.4928 20.1298 45.2713 20.1895C45.0498 20.255 44.7834 20.2878 44.4721 20.2878Z" fill="white"/>
<path d="M51.9916 13.9958C52.0814 13.9958 52.1592 14.0048 52.225 14.0226C52.2969 14.0405 52.354 14.0852 52.396 14.1567C52.4379 14.2223 52.4586 14.3295 52.4586 14.4785C52.4586 14.6274 52.4379 14.7376 52.396 14.8091C52.354 14.8747 52.2969 14.9164 52.225 14.9343C52.1533 14.9462 52.0726 14.9521 51.9828 14.9521H50.3302V19.7159C50.3302 19.8171 50.3183 19.9094 50.2944 19.9929C50.2764 20.0704 50.2285 20.1329 50.1506 20.1806C50.0787 20.2282 49.9558 20.2521 49.7823 20.2521C49.6206 20.2521 49.5009 20.2252 49.4229 20.1716C49.3452 20.1239 49.2972 20.0614 49.2793 19.9839C49.2613 19.9006 49.2526 19.8083 49.2526 19.7069V14.9521H47.5821C47.4982 14.9521 47.4204 14.9432 47.3485 14.9254C47.2766 14.9075 47.2168 14.8658 47.169 14.8002C47.127 14.7347 47.1059 14.6274 47.1059 14.4785C47.1059 14.3295 47.127 14.2223 47.169 14.1567C47.2107 14.0852 47.2674 14.0405 47.3393 14.0226C47.4172 14.0048 47.4982 13.9958 47.5821 13.9958H51.9916Z" fill="white"/>
<path d="M55.5094 20.3235C55.0783 20.3235 54.6744 20.2431 54.2972 20.0821C53.926 19.9153 53.5966 19.689 53.3092 19.403C53.0218 19.111 52.7971 18.7773 52.6354 18.4019C52.4739 18.0206 52.3931 17.6125 52.3931 17.1775C52.3931 16.7306 52.4711 16.3135 52.6267 15.9262C52.7884 15.533 53.0067 15.1904 53.2821 14.8984C53.5635 14.6005 53.8869 14.3681 54.252 14.2013C54.6174 14.0345 55.0096 13.951 55.4288 13.951C55.8659 13.951 56.2698 14.0345 56.6412 14.2013C57.0184 14.3622 57.3476 14.5886 57.629 14.8806C57.9104 15.1725 58.1319 15.5121 58.2936 15.8994C58.4553 16.2808 58.5364 16.6949 58.5364 17.1417C58.5364 17.5767 58.4585 17.9878 58.3028 18.3751C58.1472 18.7565 57.9284 19.0961 57.647 19.394C57.3656 19.686 57.0423 19.9153 56.6769 20.0821C56.3178 20.2431 55.9286 20.3235 55.5094 20.3235ZM55.4648 19.2331C55.7401 19.2331 55.9976 19.1795 56.2371 19.0722C56.4767 18.965 56.6862 18.816 56.8659 18.6254C57.0515 18.4347 57.1951 18.2142 57.2969 17.964C57.3988 17.7078 57.4494 17.4337 57.4494 17.1417C57.4494 16.8498 57.3956 16.5787 57.2877 16.3284C57.1859 16.0722 57.0423 15.8488 56.8567 15.6581C56.6769 15.4615 56.4674 15.3096 56.228 15.2023C55.9944 15.0951 55.7401 15.0414 55.4648 15.0414C55.1952 15.0414 54.9406 15.0951 54.7011 15.2023C54.4617 15.3096 54.2492 15.4615 54.0636 15.6581C53.8841 15.8488 53.7431 16.0722 53.6414 16.3284C53.5396 16.5846 53.489 16.8557 53.489 17.1417C53.489 17.4277 53.5396 17.6989 53.6414 17.955C53.7491 18.2113 53.8929 18.4347 54.0725 18.6254C54.252 18.816 54.4589 18.965 54.6923 19.0722C54.9319 19.1795 55.1894 19.2331 55.4648 19.2331Z" fill="white"/>
<path d="M59.8252 20.2431C59.6577 20.2431 59.5351 20.2192 59.4572 20.1716C59.3853 20.1239 59.3375 20.0584 59.3136 19.9751C59.2955 19.8856 59.2863 19.7932 59.2863 19.6979V14.541C59.2863 14.4457 59.2983 14.3593 59.3223 14.2818C59.3463 14.1984 59.3942 14.1329 59.4661 14.0852C59.5438 14.0316 59.6667 14.0048 59.8344 14.0048H61.7564C62.0319 14.0048 62.2921 14.0494 62.5375 14.1388C62.789 14.2222 63.0137 14.3533 63.2113 14.5321C63.409 14.7049 63.5646 14.9253 63.6783 15.1934C63.7982 15.4556 63.8581 15.7625 63.8581 16.114C63.8581 16.3464 63.8221 16.5788 63.7502 16.8111C63.6783 17.0375 63.5707 17.2491 63.4269 17.4457C63.2893 17.6364 63.1123 17.8002 62.8968 17.9373C62.6813 18.0743 62.427 18.1637 62.1336 18.2054H60.3733V19.7069C60.3733 19.8022 60.3612 19.8916 60.3373 19.9751C60.3195 20.0584 60.2715 20.1239 60.1937 20.1716C60.1218 20.2192 59.9989 20.2431 59.8252 20.2431ZM63.6512 20.1091C63.4777 20.2282 63.3339 20.2729 63.2202 20.2431C63.1123 20.2134 63.0047 20.1181 62.8968 19.9571L61.388 17.687L62.6008 17.5261L63.795 19.3316C63.8788 19.4507 63.9298 19.5519 63.9479 19.6354C63.9658 19.7187 63.9507 19.7962 63.9027 19.8677C63.8549 19.9392 63.7709 20.0197 63.6512 20.1091ZM60.3733 17.1329H61.891C61.9988 17.1329 62.1036 17.115 62.2055 17.0793C62.3133 17.0375 62.4091 16.975 62.4929 16.8916C62.5767 16.8022 62.6425 16.6949 62.6905 16.5698C62.7444 16.4387 62.7711 16.2838 62.7711 16.1051C62.7711 15.8906 62.7291 15.7088 62.6454 15.5599C62.5616 15.405 62.4417 15.2888 62.286 15.2113C62.1364 15.1279 61.954 15.0862 61.7385 15.0862H60.3733V17.1329Z" fill="white"/>
</svg>
