<svg xmlns="http://www.w3.org/2000/svg" fill="none" viewBox="0 0 51 27" height="27" width="51">
<g clip-path="url(#clip0_1_377)">
<path fill="white" d="M2.78404 3.29344L1.51161 3.70785V4.3966V5.08534H1.10304H0.694458V6.04842V7.00566L1.09136 7.02317L1.48243 7.04068L1.51745 9.14194C1.54664 11.0798 1.55831 11.2724 1.67505 11.6226C1.83264 12.1071 2.11864 12.4456 2.54473 12.6557C2.84241 12.8016 2.95331 12.8191 3.61287 12.8367C4.30162 12.86 4.94367 12.8016 5.4398 12.6674L5.65576 12.609V11.681C5.65576 11.1673 5.64993 10.7471 5.64409 10.7471C5.63242 10.7471 5.45731 10.7996 5.25886 10.8638C4.7744 11.0156 4.58762 11.0097 4.38917 10.8405C4.28532 10.7514 4.225 10.6219 4.2237 10.4851L4.20823 8.85594L4.19072 7.0115H4.92032H5.65576V6.04842V5.08534H4.92616H4.19656V3.97635C4.19656 3.12417 4.17905 2.86735 4.12651 2.87318C4.08566 2.87318 3.47863 3.0658 2.78404 3.29344Z"></path>
<path fill="white" d="M27.4855 4.20977V5.02692H27.9233C28.3377 5.02692 28.3611 5.03276 28.3611 5.15533C28.3611 5.41799 27.9116 5.91996 27.5848 6.0367C27.503 6.06588 27.8007 6.7196 27.8941 6.7196C27.9933 6.7196 28.3085 6.55034 28.6004 6.33437C29.1198 5.95498 29.2891 5.39464 29.295 4.07552V3.39261H28.3902H27.4855V4.20977Z"></path>
<path fill="white" d="M9.68322 4.94523C8.98864 5.0678 8.79019 5.11449 8.45749 5.2429C6.6364 5.96667 5.70834 7.72356 6.09357 9.73726C6.3037 10.8463 7.05665 11.8327 8.04891 12.3113C8.83105 12.6849 9.16958 12.7607 10.1794 12.7607C11.195 12.7607 11.5452 12.6849 12.304 12.3171C13.1912 11.8794 13.8857 11.033 14.1542 10.0466C14.2943 9.52714 14.3002 8.35393 14.1601 7.82862C13.9733 7.12236 13.6815 6.6204 13.162 6.10675C12.625 5.5756 12.0997 5.27793 11.3642 5.09115C10.9265 4.98025 9.96923 4.89269 9.68322 4.94523ZM10.5996 6.99979C10.9615 7.25661 11.2592 8.1263 11.2592 8.90843C11.2592 9.33452 11.1132 10.0466 10.9732 10.3268C10.909 10.4494 10.7572 10.642 10.6405 10.747C10.4478 10.9163 10.3953 10.9338 10.1502 10.9105C9.77078 10.8754 9.54898 10.6945 9.33885 10.2626C8.92443 9.42791 8.94778 8.18467 9.37971 7.39086C9.67739 6.85387 10.1677 6.69044 10.5996 6.99979Z"></path>
<path fill="white" d="M19.2148 4.99191C18.8645 5.10281 18.5785 5.29542 18.17 5.68065L17.8197 6.01919L17.668 5.5931L17.5221 5.17285L16.1096 5.15534L14.7029 5.14366V6.10674V7.06982H15.0239H15.3449V8.87924V10.6887H15.0239H14.7029V11.6517V12.6148H16.9209H19.1389V11.6517V10.6887H18.6719H18.205V9.17108C18.205 7.55427 18.2283 7.39668 18.4968 7.15737C18.6719 6.99978 19.133 6.99394 19.3081 7.15153C19.5416 7.36166 19.565 7.58346 19.5883 10.1458L19.6175 12.6148H21.5378H23.4581V11.6225V10.6303H22.9853H22.5184L22.5359 9.12438C22.5534 7.42586 22.5826 7.3208 23.0145 7.10484C23.4348 6.90055 23.8083 7.11651 23.9251 7.63015C23.9543 7.75273 23.9834 8.92593 23.9834 10.2334V12.6148H25.8687H27.7482L27.7307 11.6225L27.7132 10.6303H27.3746H27.0361L27.0011 9.03683C26.9777 7.95702 26.9369 7.31496 26.8785 7.02312C26.645 5.89661 26.003 5.20787 24.9932 4.99774C23.9426 4.77594 23.0962 4.99191 22.3199 5.68065L21.9872 5.97833L21.7304 5.68065C21.1934 5.06778 20.0144 4.74676 19.2148 4.99191Z"></path>
<path fill="white" d="M31.7172 4.95103C30.8184 5.06776 30.0304 5.55222 29.6743 6.20595C29.3475 6.8013 29.4175 7.7994 29.8261 8.38892C30.1938 8.92591 30.8125 9.28196 31.9332 9.61466C33.2523 9.99989 33.4099 10.0583 33.5442 10.1808C33.8068 10.426 33.6551 10.817 33.2523 10.9221C32.9605 11.0038 32.3826 10.9163 32.0032 10.7353C31.6238 10.5602 31.3495 10.2158 31.3904 9.9707C31.3904 9.94736 30.9468 9.92984 30.4039 9.92984H29.4117V11.2723V12.6148H30.3106C31.332 12.6148 31.2328 12.6732 31.3087 12.0136L31.3495 11.6809L31.5947 11.9377C32.0733 12.4455 32.6978 12.7198 33.4975 12.7724C34.7465 12.8483 35.8672 12.2996 36.2875 11.4007C36.4217 11.1147 36.4451 10.9921 36.4451 10.5135C36.4451 9.83062 36.3283 9.54461 35.8731 9.08934C35.4761 8.69244 34.8574 8.38892 33.7601 8.06206C32.4176 7.65348 32.2134 7.53674 32.2134 7.14568C32.2134 6.42191 33.4741 6.4686 34.1337 7.21572C34.2387 7.33246 34.3321 7.50756 34.3555 7.60095L34.3905 7.77022H35.3419H36.2991V6.42775V5.08528H35.4003H34.5014L34.4664 5.30124C34.4489 5.42381 34.4197 5.64561 34.3963 5.79737C34.3555 6.08921 34.2913 6.15925 34.2271 5.96664C34.2096 5.90243 34.0753 5.74484 33.9294 5.61059C33.3866 5.10862 32.5052 4.84597 31.7172 4.95103Z"></path>
<path fill="white" d="M37.7584 11.1848V12.1479H38.1086H38.4588V13.2569C38.4588 13.9165 38.4355 14.3659 38.4004 14.3659C38.3713 14.3659 38.167 14.2725 37.951 14.1616C37.4549 13.9048 36.9996 13.8172 36.3284 13.8581C34.805 13.9456 33.6376 14.9321 33.1998 16.4963C33.0364 17.0859 33.0247 18.0956 33.1706 18.7143C33.6259 20.6171 35.2252 21.8137 36.9529 21.5452C37.4023 21.4752 38.0969 21.195 38.2604 21.014C38.4063 20.8564 38.4355 20.874 38.5522 21.1658L38.6514 21.4285H40.3908H42.136V20.4946V19.5607H41.7858H41.4356V14.8912V10.2217H39.597H37.7584V11.1848ZM37.7759 15.8951C38.1845 16.187 38.418 16.8465 38.4238 17.7221C38.4238 18.475 38.3129 18.8311 37.9393 19.2163C37.6767 19.4848 37.6475 19.5023 37.3615 19.5023C37.0988 19.5023 37.0288 19.479 36.8303 19.298C36.7078 19.1871 36.5327 18.9303 36.4393 18.7318C36.2817 18.3875 36.27 18.3174 36.27 17.6345C36.27 16.7882 36.3576 16.4496 36.6844 16.0702C36.9996 15.6967 37.4082 15.6325 37.7759 15.8951Z"></path>
<path fill="white" d="M45.5797 13.8755C43.601 14.3016 42.4511 15.8601 42.562 17.9555C42.6087 18.7376 42.7138 19.152 43.029 19.7591C43.4726 20.6229 44.2372 21.2241 45.2878 21.5568C45.6731 21.6735 45.8556 21.7442 46.6786 21.7384C47.7117 21.7384 48.2705 21.5802 49.0234 21.2591C49.4028 21.1015 50.2083 20.6054 50.2842 20.4887C50.3017 20.4595 50.1266 20.2085 49.8873 19.9342C49.6538 19.6598 49.3795 19.3388 49.2802 19.2221L49.0993 19.0119L48.9008 19.1695C48.393 19.5548 47.6459 19.7649 46.9163 19.724C46.3793 19.6949 46.1342 19.6015 45.8248 19.3096C45.6789 19.1695 45.4046 18.6326 45.4046 18.4808C45.4046 18.4633 46.4786 18.4516 47.7918 18.4516H50.1849L50.255 18.1131C50.4184 17.3368 50.3017 16.3445 49.9631 15.6207C49.5312 14.6985 48.6732 14.0857 47.5175 13.8639C46.9805 13.7588 46.0758 13.7646 45.5797 13.8755ZM47.2957 15.9009C47.5584 16.0468 47.7218 16.327 47.7743 16.7181L47.8152 16.9924H46.6361C45.9941 16.9924 45.4629 16.9691 45.4629 16.9457C45.4629 16.9165 45.498 16.7764 45.5447 16.6247C45.7198 16.0293 46.07 15.7725 46.6887 15.7725C46.9747 15.7667 47.1206 15.8017 47.2957 15.9009Z"></path>
<path fill="white" d="M12.1055 13.8755C12.0413 13.8872 11.8428 13.9281 11.6677 13.9631C11.2008 14.0565 10.4537 14.43 10.1385 14.7335C9.42053 15.4281 9.04114 16.4262 9.04114 17.6345C9.04114 19.1579 9.67152 20.3894 10.7338 20.9556C11.2299 21.2183 11.5043 21.3058 12.088 21.37C12.9577 21.4693 13.6581 21.2825 14.1425 20.8272C14.2651 20.7105 14.376 20.6112 14.3877 20.6112C14.3993 20.6112 14.411 20.7747 14.411 20.9673C14.411 21.4926 14.306 21.7669 14.0024 22.0763C13.6464 22.4323 13.2728 22.5607 12.5666 22.5549C11.9245 22.5491 11.1891 22.3214 10.4828 21.9187C10.2319 21.7728 10.0159 21.6619 10.0042 21.6735C9.9225 21.7553 9.27461 23.2145 9.29796 23.2728C9.34465 23.3896 10.1385 23.8857 10.6112 24.09C10.8564 24.2009 11.3 24.341 11.5977 24.411C12.0705 24.5219 12.2514 24.5336 12.9985 24.5044C14.0316 24.4694 14.5569 24.3468 15.3391 23.9616C16.0512 23.6114 16.5648 23.1152 16.8742 22.479C17.2886 21.6268 17.2886 21.6444 17.3119 18.6092L17.3353 15.8834H17.7847H18.2341L18.2166 14.9378L18.1991 13.9864L16.4422 13.9981L14.6854 14.0098L14.5453 14.2199C14.4694 14.3308 14.3935 14.4242 14.3818 14.4242C14.3643 14.4242 14.2418 14.3425 14.1075 14.2491C13.7573 13.9923 13.2028 13.8405 12.6658 13.8464C12.4207 13.8522 12.1697 13.8639 12.1055 13.8755ZM13.4888 15.7667C14.02 15.9184 14.376 16.7006 14.376 17.722C14.376 18.475 14.2593 18.831 13.8915 19.2162C13.6289 19.4847 13.5997 19.5022 13.3137 19.5022C13.0627 19.5022 12.981 19.4731 12.8059 19.3155C12.5549 19.0995 12.3565 18.7201 12.2514 18.2823C12.158 17.8854 12.2047 16.9457 12.3389 16.578C12.5024 16.1169 12.8526 15.7783 13.2437 15.7141C13.2612 15.7083 13.3721 15.7375 13.4888 15.7667Z"></path>
<path fill="white" d="M18.9054 14.9495V15.9126H19.2089H19.5183L19.5533 17.6345C19.5941 19.5081 19.6233 19.7299 19.956 20.4128C20.3471 21.2183 21.2401 21.6619 22.4659 21.6619C23.2305 21.656 23.7325 21.4517 24.2636 20.9206C24.4679 20.7163 24.6547 20.5529 24.6722 20.5529C24.6955 20.5529 24.7889 20.7513 24.8881 20.9906L25.0633 21.4284H26.4758H27.8941V20.4653V19.5022H27.5147H27.1353V16.7414V13.9864H25.2092H23.283V14.9495V15.9126L23.7791 15.8951L24.2753 15.8776V17.2842C24.2753 18.8427 24.2578 18.9244 23.9076 19.2629C23.7325 19.4264 23.6391 19.4672 23.3822 19.4906C23.1138 19.5139 23.0495 19.4964 22.8861 19.3563C22.5301 19.0586 22.5067 18.8719 22.4775 16.292L22.4542 13.9864H20.6798H18.9054V14.9495Z"></path>
<path fill="white" d="M28.5362 14.932V15.8834H28.8572H29.1782V17.722V19.5606H28.8572H28.5362V20.4945V21.4284H30.6083H32.6803V20.4945V19.5606H32.3301H31.9799V16.7706V13.9864H30.2581H28.5362V14.932Z"></path>
</g>
<defs>
<clipPath id="clip0_1_377">
<rect transform="translate(0.450928 0.838379)" fill="white" height="25.7143" width="50.121"></rect>
</clipPath>
</defs>
</svg>
